<?xml version="1.0"?>
<svg xmlns="http://www.w3.org/2000/svg" id="Layer_1" enable-background="new 0 0 512 512" height="512px" viewBox="0 0 512 512" width="512px" class=""><g><g><path d="m410 0h-308c-25.364 0-46 20.636-46 46v420c0 25.364 20.636 46 46 46h308c25.364 0 46-20.636 46-46v-420c0-25.364-20.636-46-46-46zm-42.452 128h-2.667c-2.687 0-4.868 2.126-4.991 4.811-2.522 55.121-48.157 99.189-103.89 99.189s-101.368-44.068-103.89-99.189c-.123-2.685-2.304-4.811-4.991-4.811h-2.667c-8.615 0-16.028-6.621-16.434-15.226-.433-9.188 6.889-16.774 15.982-16.774h47.548c8.615 0 16.028 6.621 16.434 15.226.433 9.188-6.889 16.774-15.982 16.774h-2.808c-2.904 0-5.209 2.468-4.994 5.364 2.753 37.206 33.905 66.636 71.802 66.636s69.049-29.43 71.802-66.636c.214-2.896-2.09-5.364-4.994-5.364h-2.356c-8.615 0-16.028-6.621-16.434-15.226-.433-9.188 6.889-16.774 15.982-16.774h48c9.093 0 16.415 7.586 15.982 16.774-.406 8.605-7.819 15.226-16.434 15.226z" data-original="#000000" class="active-path" data-old_color="#000000" fill="#02D126"/></g></g> </svg>
